<svg width="86" height="35" viewBox="0 0 86 35" fill="none" xmlns="http://www.w3.org/2000/svg">
<path d="M75.6685 11.713C74.3877 11.713 73.1752 11.8598 72.0571 12.118C71.0899 10.325 69.8337 8.63784 68.309 7.1555L68.3084 7.15482C67.8541 6.71424 67.3596 6.28937 66.7735 5.8358C62.647 2.37327 53.416 0.135498 43.2557 0.135498C33.0954 0.135498 23.8647 2.37327 19.7606 5.81866C19.1513 6.28998 18.6568 6.71485 18.2025 7.15611C16.6779 8.63838 15.4218 10.3256 14.4544 12.1186C13.3363 11.8604 12.1238 11.7136 10.8431 11.7136C5.18652 11.7136 0.756104 14.4527 0.756104 17.95C0.756104 21.4474 5.18652 24.1865 10.8431 24.1865C11.4538 24.1865 12.0467 24.1489 12.6246 24.0874C13.4519 27.5307 15.4778 30.384 18.4342 32.1865C20.6139 33.5151 23.1803 34.1914 25.8715 34.1914C27.6256 34.1914 29.4316 33.9038 31.2165 33.3232C32.9521 32.759 34.6736 31.69 36.3334 30.1469C40.604 26.1755 45.908 26.1755 50.1786 30.1469C51.8385 31.6907 53.5598 32.7591 55.2949 33.3232C59.8181 34.7952 64.4794 34.3806 68.078 32.1866C71.0343 30.3839 73.061 27.5307 73.8876 24.0875C74.4654 24.1489 75.0583 24.1865 75.6691 24.1865C81.3257 24.1865 85.7561 21.4474 85.7561 17.9501C85.7568 14.4527 81.3264 11.7129 75.6698 11.7129L75.6685 11.713ZM2.5183 17.9494C2.5183 15.5245 6.32987 13.4753 10.8423 13.4753C11.8266 13.4753 12.7741 13.5777 13.6592 13.7553C12.4714 16.5457 11.9857 19.5156 12.3102 22.3464C11.8313 22.3942 11.3422 22.4235 10.8422 22.4235C6.32982 22.4235 2.5183 20.375 2.5183 17.9494ZM75.6685 22.4235C75.1685 22.4235 74.6794 22.3949 74.2006 22.3464C74.5243 19.5156 74.0387 16.5457 72.8515 13.7553C73.7367 13.5777 74.6841 13.4753 75.6684 13.4753C80.1801 13.4753 83.9924 15.5245 83.9924 17.9494C83.9917 20.375 80.1802 22.4235 75.6685 22.4235Z" fill="url(#paint0_linear_1_133)"/>
<defs>
<linearGradient id="paint0_linear_1_133" x1="-11.7426" y1="-0.70508" x2="88.0344" y2="18.5691" gradientUnits="userSpaceOnUse">
<stop offset="0.270833" stop-color="#A3A3A3"/>
<stop offset="0.412103" stop-color="#CCCCCC"/>
<stop offset="0.551716" stop-color="white"/>
<stop offset="0.677083" stop-color="#CCCCCC"/>
<stop offset="0.833333" stop-color="#A3A3A3"/>
</linearGradient>
</defs>
</svg>
