<svg width="21" height="21" viewBox="0 0 21 21" fill="none" xmlns="http://www.w3.org/2000/svg">
<path d="M10.5 20.5C9.13333 20.5 7.84167 20.2373 6.625 19.712C5.40833 19.1873 4.346 18.4707 3.438 17.562C2.52933 16.654 1.81267 15.5917 1.288 14.375C0.762667 13.1583 0.5 11.8667 0.5 10.5C0.5 9.11667 0.762667 7.821 1.288 6.613C1.81267 5.40433 2.52933 4.346 3.438 3.438C4.346 2.52933 5.40833 1.81233 6.625 1.287C7.84167 0.762333 9.13333 0.5 10.5 0.5C11.8833 0.5 13.179 0.762333 14.387 1.287C15.5957 1.81233 16.654 2.52933 17.562 3.438C18.4707 4.346 19.1873 5.40433 19.712 6.613C20.2373 7.821 20.5 9.11667 20.5 10.5C20.5 11.8667 20.2373 13.1583 19.712 14.375C19.1873 15.5917 18.4707 16.654 17.562 17.562C16.654 18.4707 15.5957 19.1873 14.387 19.712C13.179 20.2373 11.8833 20.5 10.5 20.5ZM10.5 18.45C10.9333 17.85 11.3083 17.225 11.625 16.575C11.9417 15.925 12.2 15.2333 12.4 14.5H8.6C8.8 15.2333 9.05833 15.925 9.375 16.575C9.69167 17.225 10.0667 17.85 10.5 18.45ZM7.9 18.05C7.6 17.5 7.33767 16.929 7.113 16.337C6.88767 15.7457 6.7 15.1333 6.55 14.5H3.6C4.08333 15.3333 4.68733 16.0583 5.412 16.675C6.13733 17.2917 6.96667 17.75 7.9 18.05ZM13.1 18.05C14.0333 17.75 14.8623 17.2917 15.587 16.675C16.3123 16.0583 16.9167 15.3333 17.4 14.5H14.45C14.3 15.1333 14.1127 15.7457 13.888 16.337C13.6627 16.929 13.4 17.5 13.1 18.05ZM2.75 12.5H6.15C6.1 12.1667 6.06233 11.8373 6.037 11.512C6.01233 11.1873 6 10.85 6 10.5C6 10.15 6.01233 9.81267 6.037 9.488C6.06233 9.16267 6.1 8.83333 6.15 8.5H2.75C2.66667 8.83333 2.604 9.16267 2.562 9.488C2.52067 9.81267 2.5 10.15 2.5 10.5C2.5 10.85 2.52067 11.1873 2.562 11.512C2.604 11.8373 2.66667 12.1667 2.75 12.5ZM8.15 12.5H12.85C12.9 12.1667 12.9377 11.8373 12.963 11.512C12.9877 11.1873 13 10.85 13 10.5C13 10.15 12.9877 9.81267 12.963 9.488C12.9377 9.16267 12.9 8.83333 12.85 8.5H8.15C8.1 8.83333 8.06267 9.16267 8.038 9.488C8.01267 9.81267 8 10.15 8 10.5C8 10.85 8.01267 11.1873 8.038 11.512C8.06267 11.8373 8.1 12.1667 8.15 12.5ZM14.85 12.5H18.25C18.3333 12.1667 18.396 11.8373 18.438 11.512C18.4793 11.1873 18.5 10.85 18.5 10.5C18.5 10.15 18.4793 9.81267 18.438 9.488C18.396 9.16267 18.3333 8.83333 18.25 8.5H14.85C14.9 8.83333 14.9373 9.16267 14.962 9.488C14.9873 9.81267 15 10.15 15 10.5C15 10.85 14.9873 11.1873 14.962 11.512C14.9373 11.8373 14.9 12.1667 14.85 12.5ZM14.45 6.5H17.4C16.9167 5.66667 16.3123 4.94167 15.587 4.325C14.8623 3.70833 14.0333 3.25 13.1 2.95C13.4 3.5 13.6627 4.07067 13.888 4.662C14.1127 5.254 14.3 5.86667 14.45 6.5ZM8.6 6.5H12.4C12.2 5.76667 11.9417 5.075 11.625 4.425C11.3083 3.775 10.9333 3.15 10.5 2.55C10.0667 3.15 9.69167 3.775 9.375 4.425C9.05833 5.075 8.8 5.76667 8.6 6.5ZM3.6 6.5H6.55C6.7 5.86667 6.88767 5.254 7.113 4.662C7.33767 4.07067 7.6 3.5 7.9 2.95C6.96667 3.25 6.13733 3.70833 5.412 4.325C4.68733 4.94167 4.08333 5.66667 3.6 6.5Z" fill="url(#paint0_linear_1_11168)"/>
<defs>
<linearGradient id="paint0_linear_1_11168" x1="-2.44088" y1="0.00635357" x2="21.7671" y2="1.87996" gradientUnits="userSpaceOnUse">
<stop offset="0.270833" stop-color="#A3A3A3"/>
<stop offset="0.412103" stop-color="#CCCCCC"/>
<stop offset="0.551716" stop-color="white"/>
<stop offset="0.677083" stop-color="#CCCCCC"/>
<stop offset="0.833333" stop-color="#A3A3A3"/>
</linearGradient>
</defs>
</svg>
