<svg width="206" height="206" viewBox="0 0 206 206" fill="none" xmlns="http://www.w3.org/2000/svg">
<g filter="url(#filter0_di_1_165)">
<rect x="35" y="22" width="134" height="134" rx="67" fill="url(#paint0_radial_1_165)"/>
<rect x="34.5" y="21.5" width="135" height="135" rx="67.5" stroke="url(#paint1_linear_1_165)"/>
<path d="M125.04 67.2013C125.031 64.5692 123.981 62.0471 122.119 60.1859C120.258 58.3246 117.736 57.2748 115.104 57.2655C114.899 57.2655 114.693 57.2862 114.509 57.2862H114.508C113.548 53.3413 110.859 50.0402 107.191 48.3C103.523 46.5602 99.266 46.5671 95.6029 48.3184C91.9403 50.0702 89.2625 53.3795 88.3144 57.3275C85.8263 57.5823 83.521 58.7489 81.842 60.6024C80.1627 62.4555 79.2288 64.8648 79.22 67.3657C79.2122 69.5565 79.9344 71.6872 81.2729 73.4216C81.047 73.5242 80.8211 73.6269 80.6158 73.7295H80.6162C80.3628 73.8551 80.1704 74.0769 80.0824 74.3454C79.9967 74.6052 80.0265 74.8893 80.1644 75.1253C84.5167 83.3366 91.0857 83.6652 94.2269 83.2953V83.2958C93.4658 85.6249 91.9486 87.6337 89.916 89.0024C87.837 90.109 85.3805 90.2584 83.1829 89.413C82.639 89.2466 82.0626 89.5486 81.8894 90.0902C81.729 90.6286 82.031 91.1955 82.5671 91.3632C83.7772 91.7738 85.0456 91.9887 86.3235 91.9997C87.9526 92.013 89.5554 91.5878 90.9631 90.768C93.2592 89.2751 95.0096 87.0784 95.9512 84.5069C99.749 90.1934 106.421 90.9939 109.85 90.9939C110.597 91.01 111.346 90.9687 112.087 90.8707C112.613 90.7868 112.988 90.3139 112.949 89.7824C113.65 89.9813 114.376 90.0784 115.105 90.0702C117.452 90.0633 119.701 89.1244 121.357 87.4596C123.012 85.795 123.939 83.5414 123.933 81.1935C123.927 78.846 122.989 76.5965 121.325 74.9405C123.674 73.0586 125.041 70.2113 125.041 67.2011L125.04 67.2013ZM121.878 81.2215V81.222C121.881 83.0215 121.169 84.7481 119.898 86.0224C118.628 87.2966 116.904 88.0142 115.104 88.017C114.236 88.0234 113.376 87.8484 112.579 87.5038C112.084 84.6363 110.585 82.0381 108.35 80.1749C106.987 79.099 105.366 78.3984 103.649 78.1428C107.939 72.4155 105.189 64.9636 105.065 64.6152C104.873 64.1038 104.313 63.833 103.793 63.9993C96.0947 66.4014 93.9392 71.0403 93.3647 73.8942L93.3642 73.8937C90.3876 71.9702 86.6865 71.538 83.3466 72.7239C82.0063 71.2617 81.2663 69.349 81.2731 67.3659C81.2791 65.258 82.1094 63.2364 83.5863 61.7329C85.0631 60.2291 87.0696 59.3625 89.1765 59.3185C89.6728 59.3217 90.098 58.9657 90.1823 58.4768C90.8101 54.916 93.0893 51.8632 96.3257 50.2498C99.5621 48.6369 103.372 48.6543 106.593 50.297C109.815 51.9398 112.066 55.0126 112.661 58.5793C112.699 58.857 112.857 59.1045 113.092 59.257C113.31 59.4179 113.584 59.4843 113.852 59.4417C114.264 59.3592 114.683 59.318 115.104 59.3184C117.425 59.3157 119.628 60.3366 121.126 62.109C122.624 63.8809 123.264 66.2238 122.875 68.5117C122.486 70.7992 121.107 72.7989 119.107 73.9756C118.807 74.1543 118.619 74.4727 118.606 74.821C118.594 75.1697 118.759 75.501 119.045 75.7003C120.825 76.9765 121.879 79.0325 121.878 81.2223L121.878 81.2215Z" fill="url(#paint2_linear_1_165)"/>
<path d="M67.696 119.56V110.18H66.31C65.834 110.782 65.176 111.02 64.406 111.02V112.168H66.114V119.56H67.696ZM73.1721 119.686C75.7901 119.686 77.1061 117.614 77.1061 114.856C77.1061 112.112 75.7901 110.04 73.1721 110.04C70.5541 110.04 69.2241 112.112 69.2241 114.856C69.2241 117.614 70.5541 119.686 73.1721 119.686ZM73.1721 118.174C71.5061 118.174 70.8901 116.83 70.8901 114.856C70.8901 112.896 71.5061 111.538 73.1721 111.538C74.8521 111.538 75.4541 112.896 75.4541 114.856C75.4541 116.83 74.8521 118.174 73.1721 118.174ZM82.3186 119.686C84.9366 119.686 86.2526 117.614 86.2526 114.856C86.2526 112.112 84.9366 110.04 82.3186 110.04C79.7006 110.04 78.3706 112.112 78.3706 114.856C78.3706 117.614 79.7006 119.686 82.3186 119.686ZM82.3186 118.174C80.6526 118.174 80.0366 116.83 80.0366 114.856C80.0366 112.896 80.6526 111.538 82.3186 111.538C83.9986 111.538 84.6006 112.896 84.6006 114.856C84.6006 116.83 83.9986 118.174 82.3186 118.174ZM89.5044 119.742L96.3224 109.998H94.8384L88.0064 119.742H89.5044ZM89.4344 114.66C90.7224 114.66 91.6744 113.764 91.6744 112.35C91.6744 110.95 90.7224 110.054 89.4344 110.054C88.1464 110.054 87.1944 110.95 87.1944 112.35C87.1944 113.764 88.1464 114.66 89.4344 114.66ZM89.4344 113.498C88.8464 113.498 88.5104 113.092 88.5104 112.35C88.5104 111.608 88.8464 111.202 89.4344 111.202C90.0364 111.202 90.3864 111.608 90.3864 112.35C90.3864 113.092 90.0364 113.498 89.4344 113.498ZM94.9504 119.56C96.2384 119.56 97.1904 118.664 97.1904 117.25C97.1904 115.85 96.2384 114.954 94.9504 114.954C93.6624 114.954 92.7104 115.85 92.7104 117.25C92.7104 118.664 93.6624 119.56 94.9504 119.56ZM94.9504 118.398C94.3624 118.398 94.0124 117.992 94.0124 117.25C94.0124 116.494 94.3624 116.102 94.9504 116.102C95.5384 116.102 95.9024 116.494 95.9024 117.25C95.9024 117.992 95.5384 118.398 94.9504 118.398ZM102.606 119.672C104.678 119.672 106.106 118.594 106.764 116.774L105.392 115.766C105.098 117.166 104.23 118.174 102.62 118.174C100.688 118.174 99.7784 116.788 99.7784 114.856C99.7784 112.91 100.688 111.538 102.62 111.538C104.23 111.538 105.098 112.532 105.392 113.946L106.764 112.938C106.106 111.104 104.678 110.04 102.606 110.04C99.7224 110.04 98.0984 112.154 98.0984 114.856C98.0984 117.558 99.7224 119.672 102.606 119.672ZM110.885 119.7C112.873 119.7 114.217 118.272 114.217 116.158C114.217 114.03 112.873 112.602 110.885 112.602C108.925 112.602 107.581 114.03 107.581 116.158C107.581 118.272 108.925 119.7 110.885 119.7ZM110.899 118.398C109.891 118.398 109.191 117.726 109.191 116.158C109.191 114.576 109.891 113.904 110.899 113.904C111.921 113.904 112.621 114.576 112.621 116.158C112.621 117.726 111.921 118.398 110.899 118.398ZM117.903 119.714C118.897 119.714 119.569 119.252 119.863 118.818L119.373 117.418C119.177 117.81 118.785 118.244 118.253 118.244C117.791 118.244 117.441 118.062 117.441 117.32V113.96H119.527V112.742H117.441V110.922L115.873 111.916V112.742H114.809V113.96H115.873V117.698C115.873 118.902 116.615 119.714 117.903 119.714ZM122.853 119.714C123.847 119.714 124.519 119.252 124.813 118.818L124.323 117.418C124.127 117.81 123.735 118.244 123.203 118.244C122.741 118.244 122.391 118.062 122.391 117.32V113.96H124.477V112.742H122.391V110.922L120.823 111.916V112.742H119.759V113.96H120.823V117.698C120.823 118.902 121.565 119.714 122.853 119.714ZM128.29 119.7C130.278 119.7 131.622 118.272 131.622 116.158C131.622 114.03 130.278 112.602 128.29 112.602C126.33 112.602 124.986 114.03 124.986 116.158C124.986 118.272 126.33 119.7 128.29 119.7ZM128.304 118.398C127.296 118.398 126.596 117.726 126.596 116.158C126.596 114.576 127.296 113.904 128.304 113.904C129.326 113.904 130.026 114.576 130.026 116.158C130.026 117.726 129.326 118.398 128.304 118.398ZM134.535 119.56V115.738C134.535 114.618 134.927 113.876 136.075 113.876C137.125 113.876 137.405 114.45 137.405 115.29V119.56H138.987V114.814C138.987 113.4 138.175 112.602 136.845 112.602C135.487 112.602 134.787 113.526 134.535 114.604V112.742H132.967V119.56H134.535Z" fill="#F5F7FA"/>
</g>
<defs>
<filter id="filter0_di_1_165" x="0" y="0" width="206" height="206" filterUnits="userSpaceOnUse" color-interpolation-filters="sRGB">
<feFlood flood-opacity="0" result="BackgroundImageFix"/>
<feColorMatrix in="SourceAlpha" type="matrix" values="0 0 0 0 0 0 0 0 0 0 0 0 0 0 0 0 0 0 127 0" result="hardAlpha"/>
<feOffset dx="1" dy="14"/>
<feGaussianBlur stdDeviation="17.5"/>
<feColorMatrix type="matrix" values="0 0 0 0 0 0 0 0 0 0 0 0 0 0 0 0 0 0 0.15 0"/>
<feBlend mode="normal" in2="BackgroundImageFix" result="effect1_dropShadow_1_165"/>
<feBlend mode="normal" in="SourceGraphic" in2="effect1_dropShadow_1_165" result="shape"/>
<feColorMatrix in="SourceAlpha" type="matrix" values="0 0 0 0 0 0 0 0 0 0 0 0 0 0 0 0 0 0 127 0" result="hardAlpha"/>
<feOffset dx="13.32" dy="0.74"/>
<feGaussianBlur stdDeviation="15.17"/>
<feComposite in2="hardAlpha" operator="arithmetic" k2="-1" k3="1"/>
<feColorMatrix type="matrix" values="0 0 0 0 0.101833 0 0 0 0 0.257675 0 0 0 0 0.313333 0 0 0 0.45 0"/>
<feBlend mode="normal" in2="shape" result="effect2_innerShadow_1_165"/>
</filter>
<radialGradient id="paint0_radial_1_165" cx="0" cy="0" r="1" gradientUnits="userSpaceOnUse" gradientTransform="translate(102 89) rotate(90) scale(67)">
<stop stop-color="#70A6B9" stop-opacity="0"/>
<stop offset="1" stop-color="#31505C"/>
</radialGradient>
<linearGradient id="paint1_linear_1_165" x1="56.7297" y1="38.2973" x2="131.243" y2="152.29" gradientUnits="userSpaceOnUse">
<stop offset="0.239409" stop-color="#E8EAED"/>
<stop offset="0.570379" stop-color="white" stop-opacity="0"/>
</linearGradient>
<linearGradient id="paint2_linear_1_165" x1="72.4823" y1="45.8893" x2="127.931" y2="50.2591" gradientUnits="userSpaceOnUse">
<stop offset="0.270833" stop-color="#A3A3A3"/>
<stop offset="0.412103" stop-color="#CCCCCC"/>
<stop offset="0.551716" stop-color="white"/>
<stop offset="0.677083" stop-color="#CCCCCC"/>
<stop offset="0.833333" stop-color="#A3A3A3"/>
</linearGradient>
</defs>
</svg>
