<svg width="206" height="206" viewBox="0 0 206 206" fill="none" xmlns="http://www.w3.org/2000/svg">
<g filter="url(#filter0_di_1_170)">
<rect x="35" y="22" width="134" height="134" rx="67" fill="url(#paint0_radial_1_170)"/>
<rect x="34.5" y="21.5" width="135" height="135" rx="67.5" stroke="url(#paint1_linear_1_170)"/>
<path d="M83.7201 78C84.0001 78 84.2201 77.78 84.2201 77.5V73H85.2201V71H82.2202V73H83.2202V77.5C83.2202 77.78 83.4402 78 83.7202 78H83.7201Z" fill="url(#paint2_linear_1_170)"/>
<path d="M114.221 74C115.321 74 116.221 73.1 116.221 72C116.221 70.9 115.321 70 114.221 70C113.121 70 112.221 70.9 112.221 72C112.221 73.1 113.121 74 114.221 74Z" fill="url(#paint3_linear_1_170)"/>
<path d="M84.2202 62.5C84.2202 62.22 84.4402 62 84.7202 62H98.7198C98.9998 62 99.2198 62.22 99.2198 62.5V66H107.72C108 66 108.22 66.22 108.22 66.5V80.0004H120.22V55.0001H81.7201C80.3401 55.0001 79.2201 56.1201 79.2201 57.5002V66.0002H84.2201L84.2202 62.5ZM114.22 69.0001C115.87 69.0001 117.22 70.3501 117.22 72C117.22 73.65 115.87 75 114.22 75C112.57 75 111.22 73.65 111.22 72C111.22 70.3501 112.57 69.0001 114.22 69.0001Z" fill="url(#paint4_linear_1_170)"/>
<path d="M116.22 51H115.22V47.5C115.22 47.22 115 47 114.72 47C114.44 47 114.22 47.22 114.22 47.5V51H113.22V54H116.22L116.22 51Z" fill="url(#paint5_linear_1_170)"/>
<path d="M105.22 51H108.22V54H105.22V51Z" fill="url(#paint6_linear_1_170)"/>
<path d="M88.7203 66H98.2207V63H85.2204V66H88.7203Z" fill="url(#paint7_linear_1_170)"/>
<path d="M85.7206 70H88.2206V67H79.2205V70H85.7206Z" fill="url(#paint8_linear_1_170)"/>
<path d="M88.7203 86H79.2199V89H95.6497C93.8597 87.1099 91.3396 86 88.7196 86H88.7203Z" fill="url(#paint9_linear_1_170)"/>
<path d="M123.221 58H121.221V63.0001H123.221C123.771 63.0001 124.221 62.5501 124.221 62V59C124.221 58.45 123.771 58 123.221 58Z" fill="url(#paint10_linear_1_170)"/>
<path d="M81.5304 90L83.0304 93H120.41L121.91 90H81.5304Z" fill="url(#paint11_linear_1_170)"/>
<path d="M107.72 80.9998H79.2199V84.9998H88.7203C91.9203 84.9998 94.9903 86.4898 96.9703 88.9998H124.221V80.9998H107.72Z" fill="url(#paint12_linear_1_170)"/>
<path d="M123.221 67.9995H121.221V72.9996H123.221C123.771 72.9996 124.221 72.5496 124.221 71.9995V68.9996C124.221 68.4496 123.771 67.9995 123.221 67.9995Z" fill="url(#paint13_linear_1_170)"/>
<path d="M65.11 119.56C67.126 119.56 68.372 118.734 68.372 117.068C68.372 115.808 67.616 114.856 65.488 114.688C67 114.562 67.98 113.82 67.98 112.574C67.98 111.188 67.084 110.18 65.18 110.18H60.924V119.56H65.11ZM64.704 111.58C65.684 111.58 66.342 111.888 66.342 112.84C66.342 113.792 65.698 114.086 64.76 114.086H62.506V111.58H64.704ZM64.914 115.416C66.006 115.416 66.748 115.836 66.748 116.788C66.748 117.74 66.16 118.16 64.872 118.16H62.506V115.416H64.914ZM72.8051 119.7C74.3171 119.7 75.2411 119.014 75.7591 118.23L74.7931 117.222C74.5411 117.796 74.0091 118.412 72.8191 118.412C71.7411 118.412 71.0271 117.754 70.9431 116.536H75.8151C75.8431 116.396 75.8711 116.102 75.8711 115.85C75.8711 113.96 74.7371 112.602 72.6931 112.602C70.7751 112.602 69.4451 114.016 69.4451 116.158C69.4451 118.286 70.7751 119.7 72.8051 119.7ZM72.6931 113.862C73.7291 113.862 74.3451 114.45 74.4571 115.528H70.9571C71.0831 114.422 71.7271 113.862 72.6931 113.862ZM79.9369 119.7C81.3789 119.7 82.5129 119.028 82.5129 117.684C82.5129 116.704 81.9529 116.088 80.4269 115.696L79.6009 115.486C78.6769 115.248 78.3129 115.066 78.3129 114.576C78.3129 114.114 78.7189 113.862 79.3209 113.862C80.2029 113.862 80.9309 114.31 81.4069 115.066L82.3309 114.086C81.9109 113.316 80.8889 112.616 79.4329 112.616C77.8649 112.616 76.8429 113.386 76.8429 114.66C76.8429 115.906 77.8369 116.382 78.9149 116.634L79.8249 116.858C80.5809 117.04 81.0989 117.208 81.0989 117.712C81.0989 118.202 80.6649 118.44 79.9929 118.44C78.7749 118.44 77.9349 117.74 77.5569 117.054L76.6329 118.034C77.1509 119.112 78.4809 119.7 79.9369 119.7ZM86.081 119.714C87.075 119.714 87.747 119.252 88.041 118.818L87.551 117.418C87.355 117.81 86.963 118.244 86.431 118.244C85.969 118.244 85.619 118.062 85.619 117.32V113.96H87.705V112.742H85.619V110.922L84.051 111.916V112.742H82.987V113.96H84.051V117.698C84.051 118.902 84.793 119.714 86.081 119.714ZM95.8075 119.56V111.58H98.6915V110.18H91.3555V111.58H94.2255V119.56H95.8075ZM100.112 119.7C101.54 119.7 102.198 118.636 102.408 117.74V118.244C102.408 119.224 102.982 119.56 103.71 119.56H104.676V118.216H104.242C103.99 118.216 103.878 118.118 103.878 117.81V115.248C103.878 113.568 102.926 112.602 101.232 112.602C99.7198 112.602 98.6558 113.386 98.1238 114.114L99.0618 115.234C99.4538 114.52 100.168 113.988 101.078 113.988C102.016 113.988 102.324 114.45 102.38 115.136L100.098 116.102C98.9918 116.536 98.3198 117.124 98.3198 118.09C98.3198 119.07 98.9918 119.7 100.112 119.7ZM99.8318 117.852C99.8318 117.502 100.07 117.264 100.658 116.998L102.408 116.214V116.942C102.408 117.866 101.708 118.482 100.672 118.482C100.098 118.482 99.8318 118.244 99.8318 117.852ZM107.443 111.776V110.18H105.875V111.776H107.443ZM107.443 119.56V112.742H105.875V119.56H107.443ZM110.669 119.56V110.18H109.101V119.56H110.669ZM115.198 119.7C117.186 119.7 118.53 118.272 118.53 116.158C118.53 114.03 117.186 112.602 115.198 112.602C113.238 112.602 111.894 114.03 111.894 116.158C111.894 118.272 113.238 119.7 115.198 119.7ZM115.212 118.398C114.204 118.398 113.504 117.726 113.504 116.158C113.504 114.576 114.204 113.904 115.212 113.904C116.234 113.904 116.934 114.576 116.934 116.158C116.934 117.726 116.234 118.398 115.212 118.398ZM121.443 119.56V115.808C121.443 114.674 122.171 113.778 122.955 113.778C123.417 113.778 123.599 114.086 123.599 114.464C123.599 114.856 123.389 115.304 123.165 115.528H124.775C124.901 115.318 125.083 114.828 125.083 114.17C125.083 113.162 124.453 112.602 123.599 112.602C122.381 112.602 121.695 113.582 121.443 114.674V112.742H119.875V119.56H121.443ZM127.664 111.776V110.18H126.096V111.776H127.664ZM127.664 119.56V112.742H126.096V119.56H127.664ZM130.89 119.56V115.738C130.89 114.618 131.282 113.876 132.43 113.876C133.48 113.876 133.76 114.45 133.76 115.29V119.56H135.342V114.814C135.342 113.4 134.53 112.602 133.2 112.602C131.842 112.602 131.142 113.526 130.89 114.604V112.742H129.322V119.56H130.89ZM139.669 117.516C141.349 117.516 142.483 116.508 142.483 115.066C142.483 114.212 142.091 113.512 141.419 113.078L142.693 111.678L141.181 111.16L140.845 112.798C140.495 112.672 140.103 112.602 139.669 112.602C137.989 112.602 136.841 113.624 136.841 115.066C136.841 115.934 137.261 116.648 137.947 117.068C137.317 117.502 136.785 118.104 136.785 118.72C136.785 119.238 137.107 119.56 137.597 119.7C136.939 119.854 136.323 120.204 136.323 120.848C136.323 121.702 137.429 122.304 139.333 122.304C141.811 122.304 143.071 121.324 143.071 120.036C143.071 119.014 142.329 118.468 140.971 118.468H138.773C138.143 118.468 137.961 118.286 137.961 117.936C137.961 117.698 138.115 117.432 138.241 117.222C138.647 117.418 139.137 117.516 139.669 117.516ZM139.669 116.396C138.927 116.396 138.339 115.92 138.339 115.066C138.339 114.212 138.927 113.736 139.669 113.736C140.411 113.736 140.999 114.212 140.999 115.066C140.999 115.92 140.411 116.396 139.669 116.396ZM139.403 121.128C138.157 121.128 137.597 120.834 137.597 120.33C137.597 120.092 137.765 119.868 137.919 119.714H140.761C141.363 119.714 141.657 119.868 141.657 120.232C141.657 120.806 140.873 121.128 139.403 121.128Z" fill="#F5F7FA"/>
</g>
<defs>
<filter id="filter0_di_1_170" x="0" y="0" width="206" height="206" filterUnits="userSpaceOnUse" color-interpolation-filters="sRGB">
<feFlood flood-opacity="0" result="BackgroundImageFix"/>
<feColorMatrix in="SourceAlpha" type="matrix" values="0 0 0 0 0 0 0 0 0 0 0 0 0 0 0 0 0 0 127 0" result="hardAlpha"/>
<feOffset dx="1" dy="14"/>
<feGaussianBlur stdDeviation="17.5"/>
<feColorMatrix type="matrix" values="0 0 0 0 0 0 0 0 0 0 0 0 0 0 0 0 0 0 0.15 0"/>
<feBlend mode="normal" in2="BackgroundImageFix" result="effect1_dropShadow_1_170"/>
<feBlend mode="normal" in="SourceGraphic" in2="effect1_dropShadow_1_170" result="shape"/>
<feColorMatrix in="SourceAlpha" type="matrix" values="0 0 0 0 0 0 0 0 0 0 0 0 0 0 0 0 0 0 127 0" result="hardAlpha"/>
<feOffset dx="13.32" dy="0.74"/>
<feGaussianBlur stdDeviation="15.17"/>
<feComposite in2="hardAlpha" operator="arithmetic" k2="-1" k3="1"/>
<feColorMatrix type="matrix" values="0 0 0 0 0.101833 0 0 0 0 0.257675 0 0 0 0 0.313333 0 0 0 0.45 0"/>
<feBlend mode="normal" in2="shape" result="effect2_innerShadow_1_170"/>
</filter>
<radialGradient id="paint0_radial_1_170" cx="0" cy="0" r="1" gradientUnits="userSpaceOnUse" gradientTransform="translate(102 89) rotate(90) scale(67)">
<stop stop-color="#70A6B9" stop-opacity="0"/>
<stop offset="1" stop-color="#31505C"/>
</radialGradient>
<linearGradient id="paint1_linear_1_170" x1="56.7297" y1="38.2973" x2="131.243" y2="152.29" gradientUnits="userSpaceOnUse">
<stop offset="0.239409" stop-color="#E8EAED"/>
<stop offset="0.570379" stop-color="white" stop-opacity="0"/>
</linearGradient>
<linearGradient id="paint2_linear_1_170" x1="81.779" y1="70.8272" x2="85.4279" y2="70.9483" gradientUnits="userSpaceOnUse">
<stop offset="0.270833" stop-color="#A3A3A3"/>
<stop offset="0.412103" stop-color="#CCCCCC"/>
<stop offset="0.551716" stop-color="white"/>
<stop offset="0.677083" stop-color="#CCCCCC"/>
<stop offset="0.833333" stop-color="#A3A3A3"/>
</linearGradient>
<linearGradient id="paint3_linear_1_170" x1="111.633" y1="69.9013" x2="116.474" y2="70.276" gradientUnits="userSpaceOnUse">
<stop offset="0.270833" stop-color="#A3A3A3"/>
<stop offset="0.412103" stop-color="#CCCCCC"/>
<stop offset="0.551716" stop-color="white"/>
<stop offset="0.677083" stop-color="#CCCCCC"/>
<stop offset="0.833333" stop-color="#A3A3A3"/>
</linearGradient>
<linearGradient id="paint4_linear_1_170" x1="73.1913" y1="54.3831" x2="122.323" y2="60.6192" gradientUnits="userSpaceOnUse">
<stop offset="0.270833" stop-color="#A3A3A3"/>
<stop offset="0.412103" stop-color="#CCCCCC"/>
<stop offset="0.551716" stop-color="white"/>
<stop offset="0.677083" stop-color="#CCCCCC"/>
<stop offset="0.833333" stop-color="#A3A3A3"/>
</linearGradient>
<linearGradient id="paint5_linear_1_170" x1="112.779" y1="46.8272" x2="116.428" y2="46.9483" gradientUnits="userSpaceOnUse">
<stop offset="0.270833" stop-color="#A3A3A3"/>
<stop offset="0.412103" stop-color="#CCCCCC"/>
<stop offset="0.551716" stop-color="white"/>
<stop offset="0.677083" stop-color="#CCCCCC"/>
<stop offset="0.833333" stop-color="#A3A3A3"/>
</linearGradient>
<linearGradient id="paint6_linear_1_170" x1="104.779" y1="50.926" x2="108.41" y2="51.207" gradientUnits="userSpaceOnUse">
<stop offset="0.270833" stop-color="#A3A3A3"/>
<stop offset="0.412103" stop-color="#CCCCCC"/>
<stop offset="0.551716" stop-color="white"/>
<stop offset="0.677083" stop-color="#CCCCCC"/>
<stop offset="0.833333" stop-color="#A3A3A3"/>
</linearGradient>
<linearGradient id="paint7_linear_1_170" x1="83.3088" y1="62.926" x2="97.5379" y2="67.6983" gradientUnits="userSpaceOnUse">
<stop offset="0.270833" stop-color="#A3A3A3"/>
<stop offset="0.412103" stop-color="#CCCCCC"/>
<stop offset="0.551716" stop-color="white"/>
<stop offset="0.677083" stop-color="#CCCCCC"/>
<stop offset="0.833333" stop-color="#A3A3A3"/>
</linearGradient>
<linearGradient id="paint8_linear_1_170" x1="77.8971" y1="66.926" x2="88.2954" y2="69.3404" gradientUnits="userSpaceOnUse">
<stop offset="0.270833" stop-color="#A3A3A3"/>
<stop offset="0.412103" stop-color="#CCCCCC"/>
<stop offset="0.551716" stop-color="white"/>
<stop offset="0.677083" stop-color="#CCCCCC"/>
<stop offset="0.833333" stop-color="#A3A3A3"/>
</linearGradient>
<linearGradient id="paint9_linear_1_170" x1="76.804" y1="85.926" x2="93.7628" y2="93.1143" gradientUnits="userSpaceOnUse">
<stop offset="0.270833" stop-color="#A3A3A3"/>
<stop offset="0.412103" stop-color="#CCCCCC"/>
<stop offset="0.551716" stop-color="white"/>
<stop offset="0.677083" stop-color="#CCCCCC"/>
<stop offset="0.833333" stop-color="#A3A3A3"/>
</linearGradient>
<linearGradient id="paint10_linear_1_170" x1="120.78" y1="57.8766" x2="124.425" y2="58.0459" gradientUnits="userSpaceOnUse">
<stop offset="0.270833" stop-color="#A3A3A3"/>
<stop offset="0.412103" stop-color="#CCCCCC"/>
<stop offset="0.551716" stop-color="white"/>
<stop offset="0.677083" stop-color="#CCCCCC"/>
<stop offset="0.833333" stop-color="#A3A3A3"/>
</linearGradient>
<linearGradient id="paint11_linear_1_170" x1="75.5928" y1="89.926" x2="99.1719" y2="114.49" gradientUnits="userSpaceOnUse">
<stop offset="0.270833" stop-color="#A3A3A3"/>
<stop offset="0.412103" stop-color="#CCCCCC"/>
<stop offset="0.551716" stop-color="white"/>
<stop offset="0.677083" stop-color="#CCCCCC"/>
<stop offset="0.833333" stop-color="#A3A3A3"/>
</linearGradient>
<linearGradient id="paint12_linear_1_170" x1="72.6028" y1="80.8023" x2="118.667" y2="100.857" gradientUnits="userSpaceOnUse">
<stop offset="0.270833" stop-color="#A3A3A3"/>
<stop offset="0.412103" stop-color="#CCCCCC"/>
<stop offset="0.551716" stop-color="white"/>
<stop offset="0.677083" stop-color="#CCCCCC"/>
<stop offset="0.833333" stop-color="#A3A3A3"/>
</linearGradient>
<linearGradient id="paint13_linear_1_170" x1="120.78" y1="67.8761" x2="124.425" y2="68.0454" gradientUnits="userSpaceOnUse">
<stop offset="0.270833" stop-color="#A3A3A3"/>
<stop offset="0.412103" stop-color="#CCCCCC"/>
<stop offset="0.551716" stop-color="white"/>
<stop offset="0.677083" stop-color="#CCCCCC"/>
<stop offset="0.833333" stop-color="#A3A3A3"/>
</linearGradient>
</defs>
</svg>
