<svg width="206" height="206" viewBox="0 0 206 206" fill="none" xmlns="http://www.w3.org/2000/svg">
<g filter="url(#filter0_di_1_156)">
<rect x="35" y="22" width="134" height="134" rx="67" fill="url(#paint0_radial_1_156)"/>
<rect x="34.5" y="21.5" width="135" height="135" rx="67.5" stroke="url(#paint1_linear_1_156)"/>
<path d="M116.8 51.3707C116.605 51.5928 116.568 51.9128 116.708 52.1732C116.832 52.4045 117.074 52.5454 117.331 52.5454C117.363 52.5454 117.395 52.5432 117.428 52.5391L121.801 51.934C122.188 51.8803 122.459 51.523 122.406 51.1356C122.352 50.7486 121.989 50.4759 121.607 50.5312L119.235 50.8595C119.968 50.1454 120.743 49.4737 121.553 48.8523C121.791 48.6691 121.888 48.3557 121.795 48.0704C121.701 47.7851 121.438 47.5898 121.137 47.5835C119.217 47.5468 117.323 47.7958 115.487 48.3294C115.112 48.4384 114.896 48.8312 115.004 49.2062C115.113 49.5818 115.505 49.798 115.881 49.689C116.925 49.386 117.992 49.1816 119.069 49.0767C118.268 49.7964 117.508 50.5635 116.799 51.371L116.8 51.3707Z" fill="url(#paint2_linear_1_156)"/>
<path d="M121.097 66.8549C119.383 66.9554 117.682 67.2596 116.042 67.7601C115.668 67.8741 115.458 68.2697 115.571 68.6441C115.686 69.0179 116.081 69.2286 116.455 69.1149C117.184 68.8927 117.924 68.7114 118.673 68.5727L116.511 70.2437C116.259 70.439 116.168 70.7796 116.29 71.0746C116.401 71.3413 116.661 71.5112 116.944 71.5112C116.974 71.5112 117.005 71.509 117.035 71.5056L120.255 71.0888C120.643 71.0386 120.916 70.6841 120.865 70.2961C120.815 69.9081 120.458 69.633 120.073 69.6854L119.443 69.7669L121.57 68.1221C121.815 67.9325 121.909 67.6049 121.8 67.3139C121.691 67.0229 121.397 66.8397 121.096 66.8552L121.097 66.8549Z" fill="url(#paint3_linear_1_156)"/>
<path d="M116.709 60.3834C117.635 60.0375 118.612 59.8144 119.599 59.719C118.966 60.3165 118.371 60.9866 117.924 61.772C117.791 62.0042 117.801 62.2908 117.948 62.5139C118.081 62.7126 118.303 62.8301 118.538 62.8301C118.566 62.8301 118.593 62.8289 118.621 62.8251L121.06 62.5357C121.448 62.4895 121.725 62.1379 121.679 61.7493C121.633 61.3607 121.278 61.0855 120.892 61.13L120.092 61.2248C120.663 60.6141 121.329 60.0691 121.982 59.5354C122.206 59.3522 122.296 59.0498 122.208 58.7734C122.121 58.4972 121.873 58.302 121.584 58.2815C119.772 58.1513 117.916 58.4208 116.214 59.0565C115.848 59.193 115.662 59.6015 115.798 59.9674C115.936 60.3332 116.342 60.5187 116.709 60.3828L116.709 60.3834Z" fill="url(#paint4_linear_1_156)"/>
<path d="M100.856 73.7444C101.092 73.7785 101.33 73.7953 101.568 73.7953C102.161 73.7953 102.754 73.6904 103.312 73.4837C103.679 73.3485 103.866 72.9409 103.731 72.5745C103.595 72.207 103.187 72.0209 102.821 72.1561C102.259 72.3628 101.649 72.4272 101.057 72.3438C100.668 72.2879 100.311 72.5561 100.256 72.9441C100.2 73.3305 100.469 73.6894 100.856 73.7453L100.856 73.7444Z" fill="url(#paint5_linear_1_156)"/>
<path d="M84.0015 79.0947C84.017 79.1604 84.0227 79.2255 84.041 79.2921C84.1784 79.7945 84.3405 80.1196 84.4698 80.3812C84.6239 80.6912 84.7089 80.8624 84.7231 81.2532C84.743 81.8194 84.5844 82.1527 84.4006 82.5391C84.2031 82.9523 83.98 83.4215 84.0164 84.0995C84.0808 85.2176 84.7863 86.0726 85.4375 86.6296C84.6647 87.7407 84.0934 89.1489 83.7396 90.8371C83.6518 91.2617 83.7579 91.6961 84.0306 92.031C84.3001 92.3615 84.6994 92.5511 85.1263 92.5511L118.29 92.5514C118.717 92.5514 119.116 92.3618 119.386 92.0314C119.658 91.6974 119.764 91.262 119.676 90.8345C119.133 88.2564 118.092 86.3532 116.592 85.1516C116.651 84.126 116.854 83.1415 117.214 82.2244C117.568 81.3198 117.9 80.9031 118.193 80.5367C118.459 80.2018 118.735 79.8564 118.915 79.2903C118.958 79.1573 118.99 79.0261 119.015 78.896C120.244 78.8783 122.147 78.7475 123.246 77.4382C124.056 76.4787 124.168 75.2655 124.219 73.9995C124.426 68.255 124.392 62.4867 124.119 56.8565C124.048 55.3264 123.534 54.2968 122.583 53.7906C122.034 53.5076 121.431 53.4134 120.857 53.342C117.709 52.9635 114.465 52.7171 110.96 52.5853C110.903 52.5281 110.848 52.475 110.789 52.4153C109.039 50.6871 107.657 49.3219 105.46 48.8979C104.476 48.7062 103.449 48.7251 102.409 48.958C101.888 49.0739 101.407 49.0954 100.931 49.0189C99.6642 48.8351 98.4194 48.8866 97.2321 49.1731C94.6439 49.7946 93.0617 51.3471 92.3906 52.0053C92.22 52.1696 92.0276 52.3705 91.8266 52.5898C90.3616 52.5835 88.9003 52.5686 87.4366 52.5522L85.9333 52.5358C83.9644 52.5187 81.5724 52.7168 80.4685 54.5117C79.9036 55.421 79.8606 56.4769 79.8252 57.3242C79.7396 59.2641 79.6186 61.2378 79.5011 63.1464C79.3086 66.2809 79.109 69.5222 79.06 72.7341V74.8722C79.0742 75.5268 79.1456 76.4829 79.6034 77.2304C80.515 78.7144 82.3481 79.0401 83.9998 79.0932L84.0015 79.0947ZM93.2762 66.8281C93.3066 66.928 93.3334 67.0269 93.3717 67.1283C93.4532 67.3434 93.5606 67.5592 93.6803 67.7738C93.7198 68.1772 93.766 68.5671 93.8105 68.933L93.838 69.1551C93.8797 69.4969 93.9208 69.8239 93.9641 70.1452C93.7802 70.1474 93.6115 70.1133 93.4623 70.0432C92.6782 69.6729 92.5578 68.307 92.5057 67.7112C92.4908 67.5598 92.4703 67.3283 92.4681 67.0714C92.7347 67.0262 93.0052 66.939 93.2763 66.8278L93.2762 66.8281ZM91.5736 65.6563C91.4959 65.6351 91.4321 65.614 91.3802 65.5947C91.4093 65.5685 91.4425 65.5404 91.4813 65.5075C91.906 65.1593 92.487 64.8535 93.1701 64.5926C93.1221 64.8368 93.0895 65.0937 93.081 65.3632C92.6753 65.5897 92.1107 65.8033 91.5742 65.656L91.5736 65.6563ZM110.95 67.0633C110.948 67.3252 110.928 67.5637 110.912 67.7242C110.86 68.3074 110.74 69.6733 109.956 70.0442C109.899 70.0711 109.83 70.0755 109.768 70.0916C109.853 69.3337 109.874 68.5751 109.863 67.8269C110.055 67.5404 110.214 67.2339 110.326 66.9047C110.518 66.9733 110.729 67.0257 110.951 67.064L110.95 67.0633ZM110.509 64.6845C111.202 64.9727 111.657 65.2706 111.937 65.5034C111.977 65.5366 112.011 65.5663 112.041 65.5925C111.989 65.6124 111.925 65.6336 111.847 65.6554C111.392 65.7793 110.919 65.6406 110.562 65.4744C110.564 65.214 110.547 64.9505 110.509 64.6845L110.509 64.6845ZM94.5708 79.0451L97.4434 79.0309C97.4412 79.4138 97.4286 79.798 97.3995 80.1822C96.483 80.6845 95.5759 81.1417 94.6628 81.5834C94.7364 80.4971 94.6549 79.6994 94.5715 79.0441L94.5708 79.0451ZM96.9154 70.1222C97.0387 70.1358 97.1574 70.1421 97.2721 70.1421C98.3217 70.1421 99.0421 69.6107 99.6853 69.1364C99.9798 68.9191 100.258 68.7187 100.556 68.5668C100.429 68.8726 100.319 69.2031 100.293 69.5712C100.237 70.3462 100.595 71.0482 101.206 71.3588C101.31 71.4113 101.419 71.4359 101.527 71.4359C101.785 71.4359 102.033 71.295 102.158 71.0495C102.335 70.7013 102.197 70.2751 101.849 70.0975C101.77 70.0571 101.691 69.8726 101.705 69.6716C101.726 69.3851 101.873 69.0701 102.048 68.6951C102.095 68.5952 102.141 68.4884 102.186 68.3823C102.488 68.4685 102.731 68.6173 103.024 68.8075C103.546 69.1472 104.195 69.5706 105.357 69.6625C105.852 69.6991 107.208 69.7304 108.426 69.1077C108.337 70.9123 107.955 72.4624 106.849 73.863C105.279 75.8588 103.558 76.4129 102.392 76.5261C99.2358 76.8246 97.0603 74.267 96.8239 73.9761C95.7801 72.6823 95.5346 71.3234 95.3102 69.5339C95.7867 69.8382 96.3222 70.0578 96.9152 70.1228L96.9154 70.1222ZM101.086 61.0683C101.251 60.8582 101.417 60.6386 101.583 60.3994C101.919 59.9148 102.211 59.4001 102.484 58.8738C103.748 59.8045 105.279 60.3726 106.813 60.4497C106.854 60.4519 106.911 60.4553 106.961 60.4604L106.962 60.4674C107.019 60.8105 107.08 61.1533 107.14 61.4964C105.346 61.17 103.524 61.013 101.697 61.0392C101.492 61.0421 101.289 61.0604 101.085 61.0683L101.086 61.0683ZM94.9647 75.5607C95.1268 75.228 95.3236 74.9146 95.5416 74.6145C95.6039 74.6988 95.657 74.7835 95.7249 74.8679C95.911 75.0972 96.4275 75.6874 97.2174 76.2918C97.2916 76.73 97.3454 77.1723 97.383 77.6165L94.4447 77.6308C94.4475 77.2747 94.4886 76.9053 94.6074 76.458C94.6349 76.3553 94.7524 75.9945 94.9647 75.5607ZM94.4921 83.2353C95.8092 82.6218 97.098 81.9706 98.4142 81.2389C98.6173 81.1264 98.7526 80.921 98.775 80.6904C98.8897 79.5362 98.8834 78.3834 98.7709 77.2444C99.6477 77.6621 100.685 77.9663 101.864 77.9663C102.08 77.9663 102.302 77.9565 102.527 77.9344C103.133 77.8757 103.859 77.7215 104.635 77.3872C104.536 78.4864 104.535 79.5919 104.643 80.6895C104.666 80.9207 104.8 81.1255 105.003 81.2386C106.579 82.1153 108.139 82.8919 109.74 83.6072C107.798 84.2909 105.859 84.7531 103.956 84.9696C100.63 85.356 97.3364 84.9936 94.3784 83.9383C94.4245 83.7042 94.4612 83.4692 94.4931 83.2341L94.4921 83.2353ZM120.686 54.7479C121.149 54.8061 121.592 54.8724 121.928 55.0459C122.399 55.2964 122.661 55.9283 122.708 56.9248C122.979 62.517 123.012 68.245 122.807 73.9464C122.764 74.9925 122.687 75.9081 122.165 76.5273C121.494 77.3263 120.204 77.4587 118.978 77.4798C118.67 76.1933 117.681 75.0164 116.713 73.8664C115.448 72.3624 114.253 70.942 114.592 69.446C114.676 69.0795 114.892 68.4893 115.122 67.8644C115.756 66.1362 116.195 64.843 116.052 63.9359C115.94 63.2184 115.738 62.8029 115.504 62.3224C115.285 61.8709 115.012 61.3082 114.669 60.2233C114.324 59.132 114.215 58.4872 114.12 57.9191C114.011 57.2765 113.918 56.7217 113.525 55.8787C113.194 55.1675 112.82 54.6089 112.367 54.0677C115.278 54.208 118.022 54.4285 120.687 54.7485L120.686 54.7479ZM93.3791 53.0226C94.0211 52.3926 95.3573 51.0814 97.5654 50.5512C98.5781 50.307 99.6434 50.264 100.721 50.4204C101.359 50.5209 102.031 50.4947 102.72 50.3411C103.568 50.1515 104.399 50.1339 105.192 50.2887C106.97 50.6311 108.156 51.8024 109.824 53.4515C111.033 54.6462 111.699 55.3042 112.243 56.4742C112.555 57.1437 112.623 57.5449 112.724 58.1528C112.823 58.7367 112.945 59.4633 113.32 60.6487C113.694 61.8329 114.005 62.4724 114.232 62.9396C114.453 63.3956 114.575 63.6461 114.655 64.1547C114.752 64.7689 114.176 66.3372 113.795 67.3754C113.538 68.0734 113.317 68.6762 113.214 69.1312C112.718 71.3137 114.266 73.1537 115.632 74.7765C116.84 76.2124 117.981 77.5691 117.569 78.8585C117.467 79.1763 117.317 79.3659 117.088 79.6525C116.769 80.0537 116.33 80.6028 115.898 81.7061C115.574 82.5342 115.36 83.4075 115.247 84.3105C114.865 84.1357 114.445 83.9778 113.915 83.7803C113.235 83.5275 112.389 83.2129 111.188 82.6988C109.427 81.9459 107.732 81.12 106.019 80.1807C105.927 78.9542 105.98 77.7201 106.168 76.5006C106.77 76.0548 107.377 75.4785 107.962 74.7364C108.761 73.7244 109.226 72.6499 109.501 71.5552C109.876 71.5523 110.235 71.4752 110.56 71.321C112.078 70.6035 112.249 68.6712 112.321 67.8498C112.348 67.5708 112.368 67.275 112.365 66.9657C113.084 66.7316 113.504 66.3607 113.589 65.8504C113.709 65.1291 113.099 64.6255 112.839 64.4103C112.141 63.8328 111.185 63.3677 110.012 63.0126C109.89 62.7494 109.749 62.4904 109.586 62.237C109.489 62.0875 109.341 61.9795 109.169 61.9349C108.991 61.8888 108.81 61.8572 108.632 61.8146C108.538 61.285 108.444 60.7523 108.349 60.1855C108.313 60.0121 108.258 59.7501 108.067 59.5125C107.717 59.0822 107.203 59.0519 106.881 59.0336C105.525 58.9656 104.167 58.4292 103.083 57.5508C103.383 56.7957 103.635 56.0128 103.815 55.1927C103.898 54.8104 103.656 54.4331 103.275 54.3497C102.891 54.2663 102.515 54.5077 102.432 54.8897C102.051 56.6276 101.373 58.2096 100.419 59.5919C99.9562 60.2573 99.5069 60.7761 99.0207 61.2203C97.5155 61.3874 96.0221 61.662 94.5614 62.0702C94.4211 62.109 94.2967 62.1899 94.2053 62.3024C94.1835 62.3293 94.0107 62.5451 93.8082 62.8983C92.4584 63.2641 91.3665 63.7694 90.5824 64.413C90.3439 64.6088 89.7104 65.1292 89.8308 65.8502C89.9157 66.3646 90.3347 66.7349 91.0522 66.9662C91.0488 67.2755 91.0687 67.5699 91.0961 67.8474C91.1691 68.6726 91.3388 70.6046 92.8575 71.3221C93.193 71.4807 93.5611 71.56 93.9488 71.56C94.0303 71.56 94.1143 71.5452 94.1971 71.5389C94.3279 72.1518 94.5093 72.735 94.7668 73.3031C94.3421 73.8041 93.9797 74.3504 93.6932 74.9378C93.442 75.4521 93.2904 75.9039 93.2401 76.0907C92.9166 77.3029 93.0256 78.1389 93.1409 79.0226C93.2373 79.76 93.3453 80.596 93.2196 81.8655C93.1912 82.1536 93.163 82.4259 93.1362 82.6799C92.9729 84.079 92.7463 84.9702 92.0187 85.6694C91.0143 86.6334 89.3231 86.9553 87.9026 86.4536C87.5572 86.3326 87.1737 86.1364 86.8211 85.9016C85.974 85.3389 85.4673 84.6518 85.4303 84.0183C85.4133 83.7033 85.5188 83.4812 85.6787 83.1457C85.8979 82.6857 86.1706 82.1131 86.1387 81.1988C86.1125 80.5025 85.9223 80.1196 85.7381 79.7486C85.625 79.5208 85.5074 79.2851 85.406 78.9143C84.9163 77.137 85.6076 75.3659 86.0641 74.4654C86.4568 73.6835 86.7782 73.408 87.1187 73.1173C87.4938 72.796 87.919 72.4323 88.2242 71.5483C88.6122 70.4251 88.4309 69.5851 88.271 68.8436C88.1238 68.1599 87.9838 67.5144 88.2397 66.5441C88.3911 65.9722 88.5617 65.7182 88.798 65.3665C89.0337 65.0162 89.3275 64.5801 89.6318 63.7855C90.1351 62.474 90.118 61.5875 90.101 60.7297C90.0902 60.1983 90.0798 59.6483 90.1882 58.9386C90.6425 55.9337 92.5689 53.8007 93.3808 53.0185L93.3791 53.0226ZM80.4769 72.7472C80.5249 69.5789 80.7233 66.3544 80.9151 63.2363C81.0332 61.322 81.1542 59.3426 81.2405 57.3878C81.2765 56.5187 81.3312 55.811 81.6737 55.259C82.4025 54.0736 84.2284 53.9362 85.9193 53.9538L87.4226 53.9703C88.5195 53.9823 89.6165 53.9902 90.7135 53.9987C89.8762 55.2103 89.0788 56.7964 88.7862 58.7306C88.6596 59.5593 88.6722 60.1985 88.6836 60.7624C88.7 61.5827 88.7126 62.2309 88.3085 63.2834C88.0608 63.9289 87.8378 64.2606 87.622 64.5813C87.3566 64.9762 87.082 65.3838 86.8697 66.1872C86.5279 67.4858 86.7269 68.4067 86.8862 69.147C87.0305 69.8143 87.1446 70.3416 86.8855 71.091C86.7057 71.611 86.5254 71.7662 86.1977 72.0464C85.8063 72.3819 85.3194 72.798 84.8006 73.8321C84.388 74.6459 83.8178 76.0648 83.8247 77.6715C82.6074 77.6127 81.3512 77.37 80.8128 76.493C80.5029 75.9869 80.4846 75.1272 80.4779 74.8596V72.7472L80.4769 72.7472Z" fill="url(#paint6_linear_1_156)"/>
<path d="M61.506 119.56V115.472H66.014V119.56H67.596V110.18H66.014V114.072H61.506V110.18H59.924V119.56H61.506ZM72.3246 119.7C73.8366 119.7 74.7606 119.014 75.2786 118.23L74.3126 117.222C74.0606 117.796 73.5286 118.412 72.3386 118.412C71.2606 118.412 70.5466 117.754 70.4626 116.536H75.3346C75.3626 116.396 75.3906 116.102 75.3906 115.85C75.3906 113.96 74.2566 112.602 72.2126 112.602C70.2946 112.602 68.9646 114.016 68.9646 116.158C68.9646 118.286 70.2946 119.7 72.3246 119.7ZM72.2126 113.862C73.2486 113.862 73.8646 114.45 73.9766 115.528H70.4766C70.6026 114.422 71.2466 113.862 72.2126 113.862ZM78.2348 119.7C79.6628 119.7 80.3208 118.636 80.5308 117.74V118.244C80.5308 119.224 81.1048 119.56 81.8328 119.56H82.7988V118.216H82.3648C82.1128 118.216 82.0008 118.118 82.0008 117.81V115.248C82.0008 113.568 81.0488 112.602 79.3548 112.602C77.8428 112.602 76.7788 113.386 76.2468 114.114L77.1848 115.234C77.5768 114.52 78.2908 113.988 79.2008 113.988C80.1388 113.988 80.4468 114.45 80.5028 115.136L78.2208 116.102C77.1148 116.536 76.4428 117.124 76.4428 118.09C76.4428 119.07 77.1148 119.7 78.2348 119.7ZM77.9548 117.852C77.9548 117.502 78.1928 117.264 78.7808 116.998L80.5308 116.214V116.942C80.5308 117.866 79.8308 118.482 78.7948 118.482C78.2208 118.482 77.9548 118.244 77.9548 117.852ZM85.5659 119.56V110.18H83.9979V119.56H85.5659ZM89.6884 119.714C90.6824 119.714 91.3544 119.252 91.6484 118.818L91.1584 117.418C90.9624 117.81 90.5704 118.244 90.0384 118.244C89.5764 118.244 89.2264 118.062 89.2264 117.32V113.96H91.3124V112.742H89.2264V110.922L87.6584 111.916V112.742H86.5944V113.96H87.6584V117.698C87.6584 118.902 88.4004 119.714 89.6884 119.714ZM94.2749 119.56V115.738C94.2749 114.618 94.6669 113.876 95.8149 113.876C96.8649 113.876 97.1449 114.45 97.1449 115.29V119.56H98.7269V114.814C98.7269 113.4 97.9149 112.602 96.5849 112.602C95.2269 112.602 94.5269 113.526 94.2749 114.604V110.18H92.7069V119.56H94.2749ZM101.474 121.898C102.58 121.898 103.378 121.408 103.868 120.036L106.388 112.742H104.652L103.434 116.606L102.944 118.426L102.454 116.606L101.222 112.742H99.5004L101.754 119.14H102.72L102.594 119.518C102.342 120.274 102.006 120.512 101.474 120.512C100.844 120.512 100.424 120.12 100.06 119.602L99.3184 120.862C99.6964 121.394 100.494 121.898 101.474 121.898ZM114.127 119.7C116.031 119.7 117.459 118.72 117.459 117.026C117.459 115.234 116.115 114.646 114.617 114.282L113.567 114.03C112.545 113.778 111.901 113.484 111.901 112.658C111.901 111.944 112.545 111.524 113.441 111.524C114.589 111.524 115.597 112.028 116.115 113.19L117.305 112.056C116.633 110.768 115.261 110.054 113.539 110.054C111.775 110.054 110.249 111.006 110.249 112.77C110.249 114.548 111.663 115.15 112.993 115.43L113.875 115.626C115.093 115.892 115.849 116.144 115.849 117.054C115.849 117.908 115.093 118.244 114.155 118.244C113.007 118.244 111.593 117.712 111.089 116.34L109.969 117.474C110.697 119.056 112.335 119.7 114.127 119.7ZM120.429 119.56V110.18H118.861V119.56H120.429ZM125.112 119.7C126.624 119.7 127.548 119.014 128.066 118.23L127.1 117.222C126.848 117.796 126.316 118.412 125.126 118.412C124.048 118.412 123.334 117.754 123.25 116.536H128.122C128.15 116.396 128.178 116.102 128.178 115.85C128.178 113.96 127.044 112.602 125 112.602C123.082 112.602 121.752 114.016 121.752 116.158C121.752 118.286 123.082 119.7 125.112 119.7ZM125 113.862C126.036 113.862 126.652 114.45 126.764 115.528H123.264C123.39 114.422 124.034 113.862 125 113.862ZM132.713 119.7C134.225 119.7 135.149 119.014 135.667 118.23L134.701 117.222C134.449 117.796 133.917 118.412 132.727 118.412C131.649 118.412 130.935 117.754 130.851 116.536H135.723C135.751 116.396 135.779 116.102 135.779 115.85C135.779 113.96 134.645 112.602 132.601 112.602C130.683 112.602 129.353 114.016 129.353 116.158C129.353 118.286 130.683 119.7 132.713 119.7ZM132.601 113.862C133.637 113.862 134.253 114.45 134.365 115.528H130.865C130.991 114.422 131.635 113.862 132.601 113.862ZM138.749 122.164V117.74C138.973 118.79 139.547 119.7 140.905 119.7C142.585 119.7 143.649 118.342 143.649 116.144C143.649 113.946 142.585 112.588 140.933 112.588C139.575 112.588 138.973 113.498 138.749 114.562V112.742H137.181V122.164H138.749ZM138.749 116.564V115.724C138.749 114.604 139.211 113.862 140.317 113.862C141.297 113.862 142.039 114.604 142.039 116.144C142.039 117.684 141.297 118.426 140.317 118.426C139.211 118.426 138.749 117.684 138.749 116.564Z" fill="#F5F7FA"/>
</g>
<defs>
<filter id="filter0_di_1_156" x="0" y="0" width="206" height="206" filterUnits="userSpaceOnUse" color-interpolation-filters="sRGB">
<feFlood flood-opacity="0" result="BackgroundImageFix"/>
<feColorMatrix in="SourceAlpha" type="matrix" values="0 0 0 0 0 0 0 0 0 0 0 0 0 0 0 0 0 0 127 0" result="hardAlpha"/>
<feOffset dx="1" dy="14"/>
<feGaussianBlur stdDeviation="17.5"/>
<feColorMatrix type="matrix" values="0 0 0 0 0 0 0 0 0 0 0 0 0 0 0 0 0 0 0.15 0"/>
<feBlend mode="normal" in2="BackgroundImageFix" result="effect1_dropShadow_1_156"/>
<feBlend mode="normal" in="SourceGraphic" in2="effect1_dropShadow_1_156" result="shape"/>
<feColorMatrix in="SourceAlpha" type="matrix" values="0 0 0 0 0 0 0 0 0 0 0 0 0 0 0 0 0 0 127 0" result="hardAlpha"/>
<feOffset dx="13.32" dy="0.74"/>
<feGaussianBlur stdDeviation="15.17"/>
<feComposite in2="hardAlpha" operator="arithmetic" k2="-1" k3="1"/>
<feColorMatrix type="matrix" values="0 0 0 0 0.101833 0 0 0 0 0.257675 0 0 0 0 0.313333 0 0 0 0.45 0"/>
<feBlend mode="normal" in2="shape" result="effect2_innerShadow_1_156"/>
</filter>
<radialGradient id="paint0_radial_1_156" cx="0" cy="0" r="1" gradientUnits="userSpaceOnUse" gradientTransform="translate(102 89) rotate(90) scale(67)">
<stop stop-color="#70A6B9" stop-opacity="0"/>
<stop offset="1" stop-color="#31505C"/>
</radialGradient>
<linearGradient id="paint1_linear_1_156" x1="56.7297" y1="38.2973" x2="131.243" y2="152.29" gradientUnits="userSpaceOnUse">
<stop offset="0.239409" stop-color="#E8EAED"/>
<stop offset="0.570379" stop-color="white" stop-opacity="0"/>
</linearGradient>
<linearGradient id="paint2_linear_1_156" x1="113.883" y1="47.4574" x2="122.817" y2="48.4929" gradientUnits="userSpaceOnUse">
<stop offset="0.270833" stop-color="#A3A3A3"/>
<stop offset="0.412103" stop-color="#CCCCCC"/>
<stop offset="0.551716" stop-color="white"/>
<stop offset="0.677083" stop-color="#CCCCCC"/>
<stop offset="0.833333" stop-color="#A3A3A3"/>
</linearGradient>
<linearGradient id="paint3_linear_1_156" x1="114.613" y1="66.7393" x2="122.207" y2="67.5349" gradientUnits="userSpaceOnUse">
<stop offset="0.270833" stop-color="#A3A3A3"/>
<stop offset="0.412103" stop-color="#CCCCCC"/>
<stop offset="0.551716" stop-color="white"/>
<stop offset="0.677083" stop-color="#CCCCCC"/>
<stop offset="0.833333" stop-color="#A3A3A3"/>
</linearGradient>
<linearGradient id="paint4_linear_1_156" x1="114.8" y1="58.1365" x2="122.606" y2="58.9922" gradientUnits="userSpaceOnUse">
<stop offset="0.270833" stop-color="#A3A3A3"/>
<stop offset="0.412103" stop-color="#CCCCCC"/>
<stop offset="0.551716" stop-color="white"/>
<stop offset="0.677083" stop-color="#CCCCCC"/>
<stop offset="0.833333" stop-color="#A3A3A3"/>
</linearGradient>
<linearGradient id="paint5_linear_1_156" x1="99.73" y1="72.0705" x2="103.914" y2="72.7489" gradientUnits="userSpaceOnUse">
<stop offset="0.270833" stop-color="#A3A3A3"/>
<stop offset="0.412103" stop-color="#CCCCCC"/>
<stop offset="0.551716" stop-color="white"/>
<stop offset="0.677083" stop-color="#CCCCCC"/>
<stop offset="0.833333" stop-color="#A3A3A3"/>
</linearGradient>
<linearGradient id="paint6_linear_1_156" x1="72.4" y1="47.6866" x2="127.199" y2="52.074" gradientUnits="userSpaceOnUse">
<stop offset="0.270833" stop-color="#A3A3A3"/>
<stop offset="0.412103" stop-color="#CCCCCC"/>
<stop offset="0.551716" stop-color="white"/>
<stop offset="0.677083" stop-color="#CCCCCC"/>
<stop offset="0.833333" stop-color="#A3A3A3"/>
</linearGradient>
</defs>
</svg>
