<svg width="206" height="206" viewBox="0 0 206 206" fill="none" xmlns="http://www.w3.org/2000/svg">
<g filter="url(#filter0_di_1_186)">
<rect x="35" y="22" width="134" height="134" rx="67" fill="url(#paint0_radial_1_186)"/>
<rect x="34.5" y="21.5" width="135" height="135" rx="67.5" stroke="url(#paint1_linear_1_186)"/>
<path d="M104.522 76.8548C103.579 77.0401 102.623 77.1796 101.66 77.273C102.629 77.2404 103.597 77.1602 104.55 77.0333C106.782 76.7386 109.018 76.1794 111.193 75.3727C115.277 73.8614 119.231 71.4646 122.945 68.2477C124.656 66.7666 126.307 65.1196 127.85 63.3511C128.617 62.473 129.355 61.5651 130.045 60.6539C130.405 60.1798 130.751 59.7052 131.073 59.2423C131.432 58.7259 131.736 58.2742 132.052 57.7554C132.383 57.2117 132.21 56.4994 131.665 56.1687C131.483 56.0584 131.276 56 131.067 56C130.66 56 130.29 56.2076 130.078 56.5548C130.065 56.5762 130.054 56.5961 130.044 56.6146C130.041 56.62 130.039 56.6253 130.035 56.6307C129.835 57.0138 129.57 57.4763 129.231 58.0344C128.953 58.491 128.652 58.9637 128.338 59.4368C127.729 60.3534 127.076 61.2681 126.395 62.154C125.015 63.9512 123.523 65.6394 121.961 67.172C118.55 70.518 114.853 73.0864 110.967 74.8072C108.877 75.7369 106.709 76.4244 104.522 76.8548L104.522 76.8548Z" fill="url(#paint2_linear_1_186)"/>
<path d="M111.384 75.8863C109.196 76.6968 106.924 77.2716 104.622 77.576C103.301 77.7515 101.971 77.8381 100.644 77.8381C99.6582 77.8381 98.6755 77.7909 97.6981 77.6961C93.102 77.2589 88.6898 75.7992 84.6376 73.754C88.8106 75.5449 93.2647 76.7027 97.7529 76.8476C98.0889 76.8593 98.4249 76.8641 98.7609 76.8641C100.664 76.8641 102.561 76.6813 104.416 76.3171C106.598 75.8882 108.722 75.206 110.745 74.3089C114.701 72.5564 118.253 69.9982 121.352 67.0005C119.907 66.1423 116.479 64.8974 111.041 67.5923C107.794 69.2018 103.442 70.202 99.0789 70.5861C99.5939 70.9387 100.131 71.2596 100.694 71.5343C101.376 71.864 102.086 72.1402 102.828 72.3323C103.567 72.5302 104.332 72.6576 105.119 72.6649C104.352 72.8676 103.539 72.8676 102.743 72.7908C101.945 72.6994 101.155 72.5078 100.401 72.2156C99.4199 71.8412 98.5003 71.3165 97.6611 70.6878C96.1707 70.7744 94.6945 70.7875 93.2736 70.7282C93.5328 70.9917 93.8056 71.2431 94.0935 71.479C94.6813 71.9691 95.3232 72.4067 96.0336 72.7437C95.2522 72.6056 94.5146 72.2642 93.8246 71.8592C93.2688 71.5212 92.7485 71.1201 92.2711 70.6727C89.215 70.4671 86.4802 69.9137 84.5377 69.0044C78.6376 66.244 74.8015 62.2893 72.22 66.4745C72.22 66.4745 77.3296 77.0928 86.3062 81.5927C86.9369 81.2066 87.5486 80.7685 88.1137 80.2311C87.98 80.6118 87.7733 80.9653 87.5467 81.3018C87.396 81.5274 87.2282 81.7419 87.0502 81.9481C88.97 82.8175 90.9329 83.4413 92.9033 83.8484C93.9342 83.6826 94.945 83.4244 95.9215 83.0441C96.61 82.7777 97.281 82.4504 97.9277 82.0604C98.5744 81.6685 99.2021 81.2212 99.7799 80.6712C99.6461 81.052 99.4395 81.4055 99.2139 81.742C98.9873 82.0814 98.7237 82.396 98.4422 82.694C97.8742 83.2877 97.212 83.7973 96.4957 84.2184C96.4218 84.2617 96.3449 84.3001 96.2691 84.3419C99.9976 84.6682 103.671 84.2792 107.037 83.3855C107.726 82.9605 108.383 82.4835 108.994 81.9452C109.55 81.4585 110.067 80.9207 110.54 80.3313C111.013 79.7401 111.448 79.105 111.802 78.3897C111.807 78.7928 111.734 79.1954 111.638 79.5907C111.542 79.9866 111.403 80.3726 111.241 80.75C111.002 81.297 110.7 81.8192 110.35 82.3093C113.768 80.9829 116.71 79.1336 118.843 77.036C118.845 76.8541 118.844 76.6727 118.839 76.4894C118.813 75.7338 118.73 74.9684 118.533 74.1947C118.8 74.4982 119.006 74.8502 119.19 75.2125C119.356 75.5407 119.491 75.885 119.605 76.238C121.539 74.0713 122.608 71.6881 122.481 69.3614C119.155 72.1039 115.428 74.3912 111.384 75.8869L111.384 75.8863Z" fill="url(#paint3_linear_1_186)"/>
<path d="M80.624 119.672C82.696 119.672 84.124 118.594 84.782 116.774L83.41 115.766C83.116 117.166 82.248 118.174 80.638 118.174C78.706 118.174 77.796 116.788 77.796 114.856C77.796 112.91 78.706 111.538 80.638 111.538C82.248 111.538 83.116 112.532 83.41 113.946L84.782 112.938C84.124 111.104 82.696 110.04 80.624 110.04C77.74 110.04 76.116 112.154 76.116 114.856C76.116 117.558 77.74 119.672 80.624 119.672ZM88.903 119.7C90.891 119.7 92.235 118.272 92.235 116.158C92.235 114.03 90.891 112.602 88.903 112.602C86.943 112.602 85.599 114.03 85.599 116.158C85.599 118.272 86.943 119.7 88.903 119.7ZM88.917 118.398C87.909 118.398 87.209 117.726 87.209 116.158C87.209 114.576 87.909 113.904 88.917 113.904C89.939 113.904 90.639 114.576 90.639 116.158C90.639 117.726 89.939 118.398 88.917 118.398ZM95.1479 119.56V115.738C95.1479 114.618 95.5399 113.876 96.4639 113.876C97.3879 113.876 97.7799 114.352 97.7799 115.29V119.56H99.3479V115.738C99.3479 114.618 99.7399 113.876 100.664 113.876C101.588 113.876 101.98 114.352 101.98 115.29V119.56H103.548V114.814C103.548 113.4 102.862 112.602 101.56 112.602C100.258 112.602 99.5859 113.54 99.3479 114.618C99.2779 113.33 98.6059 112.602 97.3599 112.602C96.0719 112.602 95.3999 113.526 95.1479 114.604V112.742H93.5799V119.56H95.1479ZM107.068 119.56V113.96H109.056V112.742H107.068V112.168C107.068 111.608 107.306 111.3 107.88 111.3C108.398 111.3 108.804 111.608 109.056 112.014L109.742 110.894C109.462 110.53 108.804 110.04 107.81 110.04C106.368 110.04 105.5 110.908 105.5 112.322V112.742H104.45V113.96H105.5V119.56H107.068ZM112.692 119.7C114.68 119.7 116.024 118.272 116.024 116.158C116.024 114.03 114.68 112.602 112.692 112.602C110.732 112.602 109.388 114.03 109.388 116.158C109.388 118.272 110.732 119.7 112.692 119.7ZM112.706 118.398C111.698 118.398 110.998 117.726 110.998 116.158C110.998 114.576 111.698 113.904 112.706 113.904C113.728 113.904 114.428 114.576 114.428 116.158C114.428 117.726 113.728 118.398 112.706 118.398ZM118.937 119.56V115.808C118.937 114.674 119.665 113.778 120.449 113.778C120.911 113.778 121.093 114.086 121.093 114.464C121.093 114.856 120.883 115.304 120.659 115.528H122.269C122.395 115.318 122.577 114.828 122.577 114.17C122.577 113.162 121.947 112.602 121.093 112.602C119.875 112.602 119.189 113.582 118.937 114.674V112.742H117.369V119.56H118.937ZM126.081 119.714C127.075 119.714 127.747 119.252 128.041 118.818L127.551 117.418C127.355 117.81 126.963 118.244 126.431 118.244C125.969 118.244 125.619 118.062 125.619 117.32V113.96H127.705V112.742H125.619V110.922L124.051 111.916V112.742H122.987V113.96H124.051V117.698C124.051 118.902 124.793 119.714 126.081 119.714Z" fill="#F5F7FA"/>
</g>
<defs>
<filter id="filter0_di_1_186" x="0" y="0" width="206" height="206" filterUnits="userSpaceOnUse" color-interpolation-filters="sRGB">
<feFlood flood-opacity="0" result="BackgroundImageFix"/>
<feColorMatrix in="SourceAlpha" type="matrix" values="0 0 0 0 0 0 0 0 0 0 0 0 0 0 0 0 0 0 127 0" result="hardAlpha"/>
<feOffset dx="1" dy="14"/>
<feGaussianBlur stdDeviation="17.5"/>
<feColorMatrix type="matrix" values="0 0 0 0 0 0 0 0 0 0 0 0 0 0 0 0 0 0 0.15 0"/>
<feBlend mode="normal" in2="BackgroundImageFix" result="effect1_dropShadow_1_186"/>
<feBlend mode="normal" in="SourceGraphic" in2="effect1_dropShadow_1_186" result="shape"/>
<feColorMatrix in="SourceAlpha" type="matrix" values="0 0 0 0 0 0 0 0 0 0 0 0 0 0 0 0 0 0 127 0" result="hardAlpha"/>
<feOffset dx="13.32" dy="0.74"/>
<feGaussianBlur stdDeviation="15.17"/>
<feComposite in2="hardAlpha" operator="arithmetic" k2="-1" k3="1"/>
<feColorMatrix type="matrix" values="0 0 0 0 0.101833 0 0 0 0 0.257675 0 0 0 0 0.313333 0 0 0 0.45 0"/>
<feBlend mode="normal" in2="shape" result="effect2_innerShadow_1_186"/>
</filter>
<radialGradient id="paint0_radial_1_186" cx="0" cy="0" r="1" gradientUnits="userSpaceOnUse" gradientTransform="translate(102 89) rotate(90) scale(67)">
<stop stop-color="#70A6B9" stop-opacity="0"/>
<stop offset="1" stop-color="#31505C"/>
</radialGradient>
<linearGradient id="paint1_linear_1_186" x1="56.7297" y1="38.2973" x2="131.243" y2="152.29" gradientUnits="userSpaceOnUse">
<stop offset="0.239409" stop-color="#E8EAED"/>
<stop offset="0.570379" stop-color="white" stop-opacity="0"/>
</linearGradient>
<linearGradient id="paint2_linear_1_186" x1="97.1658" y1="55.4749" x2="133.923" y2="59.5618" gradientUnits="userSpaceOnUse">
<stop offset="0.270833" stop-color="#A3A3A3"/>
<stop offset="0.412103" stop-color="#CCCCCC"/>
<stop offset="0.551716" stop-color="white"/>
<stop offset="0.677083" stop-color="#CCCCCC"/>
<stop offset="0.833333" stop-color="#A3A3A3"/>
</linearGradient>
<linearGradient id="paint3_linear_1_186" x1="64.8279" y1="64.1619" x2="123.766" y2="75.7403" gradientUnits="userSpaceOnUse">
<stop offset="0.270833" stop-color="#A3A3A3"/>
<stop offset="0.412103" stop-color="#CCCCCC"/>
<stop offset="0.551716" stop-color="white"/>
<stop offset="0.677083" stop-color="#CCCCCC"/>
<stop offset="0.833333" stop-color="#A3A3A3"/>
</linearGradient>
</defs>
</svg>
